<svg id="Layer_1" data-name="Layer 1" xmlns="http://www.w3.org/2000/svg" viewBox="0 0 1490.67 116.38"><defs><style>.cls-1{fill:#1976d2;}.cls-2{fill:#263238;}</style></defs><path class="cls-1" d="M107,97,74.9,122s-7,4.18-13.25-3.48L8,44.69,26.81,18.91a29,29,0,0,1,23-11.15l116.37.69s14.64-1.39,23.7,10.46S208,44,208,44l-55.06,77.35s-4.18,6.28-12.54,0S109,97,109,97l38.33-47.38H68.62Z" transform="translate(-8 -7.76)"/><path class="cls-2" d="M236.7,65.92a58.94,58.94,0,0,1,4.59-23.7A55.23,55.23,0,0,1,253.76,24.1a54.3,54.3,0,0,1,18.37-11.56,61.78,61.78,0,0,1,22.3-4,69.85,69.85,0,0,1,16.65,1.8,79.6,79.6,0,0,1,12.54,4.1,59,59,0,0,1,10.5,5.74L316.9,50.5a60.65,60.65,0,0,0-5.74-3.77,56.56,56.56,0,0,0-6.64-2.54A28.87,28.87,0,0,0,295.74,43a23.83,23.83,0,0,0-9.35,1.8,24.21,24.21,0,0,0-7.46,4.92,22.51,22.51,0,0,0-6.8,16.24A21.46,21.46,0,0,0,274,74.86a23,23,0,0,0,5.17,7.3,24.57,24.57,0,0,0,7.71,4.92,25.41,25.41,0,0,0,9.67,1.8,30.78,30.78,0,0,0,9.35-1.31,34.89,34.89,0,0,0,6.89-2.95,25.68,25.68,0,0,0,5.74-4.27l17.22,30.34a48.48,48.48,0,0,1-10.5,6.4,89.08,89.08,0,0,1-12.63,4.26,65.83,65.83,0,0,1-16.89,2,65.09,65.09,0,0,1-23.61-4.18,55.7,55.7,0,0,1-18.7-11.73,53.19,53.19,0,0,1-12.3-18.12A60,60,0,0,1,236.7,65.92Zm20.67,0a40.07,40.07,0,0,1,2.7-14.76,36,36,0,0,1,7.63-12,35.53,35.53,0,0,1,12-8,40.36,40.36,0,0,1,15.74-2.95,45.91,45.91,0,0,1,7.63.57,34.6,34.6,0,0,1,5.66,1.4,21.29,21.29,0,0,1,4.75,2l2.3-3.94c-1.75-.76-3.61-1.48-5.58-2.13a62.46,62.46,0,0,0-6.39-1.48,48.08,48.08,0,0,0-8.37-.65,43.91,43.91,0,0,0-16,2.95A41,41,0,0,0,266,35.33,41.46,41.46,0,0,0,253.1,65.92a43,43,0,0,0,3.36,17.38,39.24,39.24,0,0,0,9.27,13.21A41.35,41.35,0,0,0,279.51,105a47.14,47.14,0,0,0,16.72,3,43.37,43.37,0,0,0,8.86-.82,51.38,51.38,0,0,0,6.72-1.8,32.83,32.83,0,0,0,5.58-2.62l-2.3-3.94a21,21,0,0,1-4.92,2.46,36.07,36.07,0,0,1-5.9,1.72,38.91,38.91,0,0,1-8,.74,42.48,42.48,0,0,1-16.23-3,36,36,0,0,1-12.22-8,35.26,35.26,0,0,1-7.71-12A40.07,40.07,0,0,1,257.37,65.92Z" transform="translate(-8 -7.76)"/><path class="cls-2" d="M337.4,65.92a55.8,55.8,0,0,1,4.51-22.3A57.38,57.38,0,0,1,372.49,13a57.41,57.41,0,0,1,44.61,0,57.35,57.35,0,0,1,30.59,30.59,57.39,57.39,0,0,1,0,44.6,57.35,57.35,0,0,1-30.59,30.59,57.41,57.41,0,0,1-44.61,0,57.38,57.38,0,0,1-30.58-30.59A55.8,55.8,0,0,1,337.4,65.92Zm15.41,0a41,41,0,0,0,3.28,16.32,42.31,42.31,0,0,0,22.39,22.38,42.24,42.24,0,0,0,32.64,0A42.34,42.34,0,0,0,433.5,82.24a42.24,42.24,0,0,0,0-32.64,42.34,42.34,0,0,0-22.38-22.38,42.24,42.24,0,0,0-32.64,0A42.31,42.31,0,0,0,356.09,49.6,41,41,0,0,0,352.81,65.92Zm42,37.72a36.46,36.46,0,0,1-14.68-3A38.43,38.43,0,0,1,360,80.6a38,38,0,0,1,0-29.36,38.43,38.43,0,0,1,20.09-20.09,38,38,0,0,1,29.36,0,38.43,38.43,0,0,1,20.09,20.09,38,38,0,0,1,0,29.36,38.43,38.43,0,0,1-20.09,20.09A36.5,36.5,0,0,1,394.8,103.64Zm-23-37.72a22.38,22.38,0,0,0,1.8,8.94,23.14,23.14,0,0,0,4.92,7.3,23.48,23.48,0,0,0,7.3,4.92,23.1,23.1,0,0,0,17.88,0A23.43,23.43,0,0,0,411,82.16a23.14,23.14,0,0,0,4.92-7.3A23,23,0,0,0,416,57a23.14,23.14,0,0,0-4.92-7.3,23.43,23.43,0,0,0-7.29-4.92,23.1,23.1,0,0,0-17.88,0,23.48,23.48,0,0,0-7.3,4.92,23.14,23.14,0,0,0-4.92,7.3A22.38,22.38,0,0,0,371.84,65.92Z" transform="translate(-8 -7.76)"/><path class="cls-2" d="M458.76,65.92a55.8,55.8,0,0,1,4.51-22.3A57.38,57.38,0,0,1,493.85,13a57.41,57.41,0,0,1,44.61,0,57.35,57.35,0,0,1,30.59,30.59,57.39,57.39,0,0,1,0,44.6,57.35,57.35,0,0,1-30.59,30.59,57.41,57.41,0,0,1-44.61,0,57.38,57.38,0,0,1-30.58-30.59A55.8,55.8,0,0,1,458.76,65.92Zm15.41,0a40.81,40.81,0,0,0,3.28,16.32,42.31,42.31,0,0,0,22.39,22.38,42.22,42.22,0,0,0,32.63,0,42.31,42.31,0,0,0,22.39-22.38,42.24,42.24,0,0,0,0-32.64,42.31,42.31,0,0,0-22.39-22.38,42.22,42.22,0,0,0-32.63,0A42.31,42.31,0,0,0,477.45,49.6,40.85,40.85,0,0,0,474.17,65.92Zm42,37.72a36.43,36.43,0,0,1-14.68-3A38.43,38.43,0,0,1,481.39,80.6a38,38,0,0,1,0-29.36,38.43,38.43,0,0,1,20.09-20.09,38,38,0,0,1,29.35,0,38.33,38.33,0,0,1,20.09,20.09,37.88,37.88,0,0,1,0,29.36,38.33,38.33,0,0,1-20.09,20.09A36.45,36.45,0,0,1,516.16,103.64Zm-23-37.72a22.21,22.21,0,0,0,1.8,8.94,23.14,23.14,0,0,0,4.92,7.3,23.48,23.48,0,0,0,7.3,4.92,23.08,23.08,0,0,0,17.87,0,23.48,23.48,0,0,0,7.3-4.92,23.14,23.14,0,0,0,4.92-7.3,23,23,0,0,0,0-17.88,23.14,23.14,0,0,0-4.92-7.3,23.48,23.48,0,0,0-7.3-4.92,23.08,23.08,0,0,0-17.87,0,23.48,23.48,0,0,0-7.3,4.92A23.14,23.14,0,0,0,495,57,22.21,22.21,0,0,0,493.2,65.92Z" transform="translate(-8 -7.76)"/><path class="cls-2" d="M582.57,11.14H619V91.83h30.18v28.7H582.57ZM640,107.41v-3.93H603.24V24.26H599v83.15Z" transform="translate(-8 -7.76)"/><path class="cls-2" d="M685.24,65.92a58.94,58.94,0,0,1,4.59-23.7A55.2,55.2,0,0,1,702.29,24.1a54.3,54.3,0,0,1,18.37-11.56,61.82,61.82,0,0,1,22.3-4,69.73,69.73,0,0,1,16.65,1.8,79.75,79.75,0,0,1,12.55,4.1,59.29,59.29,0,0,1,10.49,5.74L765.43,50.5a59.39,59.39,0,0,0-5.74-3.77,55.88,55.88,0,0,0-6.64-2.54A28.81,28.81,0,0,0,744.28,43a23.79,23.79,0,0,0-9.35,1.8,24.09,24.09,0,0,0-7.46,4.92,22.46,22.46,0,0,0-6.81,16.24,21.47,21.47,0,0,0,1.89,8.94,22.85,22.85,0,0,0,5.16,7.3,24.8,24.8,0,0,0,7.71,4.92,25.46,25.46,0,0,0,9.68,1.8,30.88,30.88,0,0,0,9.35-1.31,34.78,34.78,0,0,0,6.88-2.95,25.46,25.46,0,0,0,5.74-4.27l17.22,30.34a48.65,48.65,0,0,1-10.49,6.4,89.08,89.08,0,0,1-12.63,4.26,65.83,65.83,0,0,1-16.89,2,65.18,65.18,0,0,1-23.62-4.18A55.8,55.8,0,0,1,702,107.41a53.31,53.31,0,0,1-12.29-18.12A59.78,59.78,0,0,1,685.24,65.92Zm20.66,0a39.87,39.87,0,0,1,2.71-14.76,34.91,34.91,0,0,1,19.6-20A40.29,40.29,0,0,1,744,28.2a46.08,46.08,0,0,1,7.63.57,34.72,34.72,0,0,1,5.65,1.4,21.38,21.38,0,0,1,4.76,2l2.3-3.94c-1.75-.76-3.61-1.48-5.58-2.13a62.07,62.07,0,0,0-6.4-1.48,47.87,47.87,0,0,0-8.36-.65,43.83,43.83,0,0,0-16,2.95,41,41,0,0,0-13.45,8.44,41.4,41.4,0,0,0-12.87,30.59A43,43,0,0,0,705,83.3a39.36,39.36,0,0,0,9.26,13.21A41.35,41.35,0,0,0,728,105a47.24,47.24,0,0,0,16.73,3,43.27,43.27,0,0,0,8.85-.82,51.13,51.13,0,0,0,6.73-1.8,32.72,32.72,0,0,0,5.57-2.62l-2.29-3.94a21,21,0,0,1-4.92,2.46,36.21,36.21,0,0,1-5.91,1.72,38.74,38.74,0,0,1-8,.74,42.49,42.49,0,0,1-16.24-3,36,36,0,0,1-12.21-8,35.11,35.11,0,0,1-7.71-12A39.87,39.87,0,0,1,705.9,65.92Z" transform="translate(-8 -7.76)"/><path class="cls-2" d="M785.93,65.92a55.8,55.8,0,0,1,4.51-22.3A57.35,57.35,0,0,1,821,13a57.41,57.41,0,0,1,44.61,0,57.38,57.38,0,0,1,30.58,30.59,57.39,57.39,0,0,1,0,44.6,57.38,57.38,0,0,1-30.58,30.59,57.41,57.41,0,0,1-44.61,0,57.35,57.35,0,0,1-30.59-30.59A55.8,55.8,0,0,1,785.93,65.92Zm15.42,0a40.81,40.81,0,0,0,3.28,16.32A42.34,42.34,0,0,0,827,104.62a42.24,42.24,0,0,0,32.64,0A42.31,42.31,0,0,0,882,82.24a42.24,42.24,0,0,0,0-32.64,42.31,42.31,0,0,0-22.39-22.38,42.24,42.24,0,0,0-32.64,0A42.34,42.34,0,0,0,804.63,49.6,40.85,40.85,0,0,0,801.35,65.92Zm42,37.72a36.46,36.46,0,0,1-14.68-3A38.43,38.43,0,0,1,808.56,80.6a38,38,0,0,1,0-29.36,38.43,38.43,0,0,1,20.09-20.09,38,38,0,0,1,29.36,0A38.43,38.43,0,0,1,878.1,51.24a38,38,0,0,1,0,29.36A38.43,38.43,0,0,1,858,100.69,36.46,36.46,0,0,1,843.33,103.64Zm-23-37.72a22.22,22.22,0,0,0,1.81,8.94,23.14,23.14,0,0,0,4.92,7.3,23.43,23.43,0,0,0,7.29,4.92,23.1,23.1,0,0,0,17.88,0,23,23,0,0,0,12.22-12.22,23.1,23.1,0,0,0,0-17.88,23,23,0,0,0-12.22-12.22,23.1,23.1,0,0,0-17.88,0,23.43,23.43,0,0,0-7.29,4.92,23.14,23.14,0,0,0-4.92,7.3A22.22,22.22,0,0,0,820.37,65.92Z" transform="translate(-8 -7.76)"/><path class="cls-2" d="M909.75,11.14h36.41V91.83h30.17v28.7H909.75Zm57.4,96.27v-3.93H930.42V24.26h-4.27v83.15Z" transform="translate(-8 -7.76)"/><path class="cls-2" d="M982.07,11.14h36.41V91.83h30.18v28.7H982.07Zm57.4,96.27v-3.93h-36.73V24.26h-4.27v83.15Z" transform="translate(-8 -7.76)"/><path class="cls-2" d="M1086.87,11.14h26.24l41.49,109.39h-34.44l-3.61-9.84h-33.13l-3.6,9.84h-34.44Zm-17.06,96.27,3.12-8.2h54.12l3.12,8.2h4.59l-31.65-83.15h-6.24l-31.65,83.15ZM1100,28.2l25.58,67.08h-51.16Zm7.38,58.38L1100,67.4l-7.38,19.18Z" transform="translate(-8 -7.76)"/><path class="cls-2" d="M1157.06,11.14h37.72a64.89,64.89,0,0,1,19.43,2.79,45.15,45.15,0,0,1,15.5,8.2A37.66,37.66,0,0,1,1240,35.5a43,43,0,0,1,3.69,18.28,37.57,37.57,0,0,1-2.29,13.94,43.13,43.13,0,0,1-5.09,9.52,35.67,35.67,0,0,1-7.38,7.21l20.5,36.08h-41L1192,92.82v27.71h-34.93Zm34.11,71.34a58.51,58.51,0,0,0,12.47-1.31l15.58,26.24h5.08l-16.4-27.55a30.84,30.84,0,0,0,14.1-9.59q5.25-6.48,5.25-16.81a27.21,27.21,0,0,0-2.79-12.63,26.7,26.7,0,0,0-7.62-9.1,34.28,34.28,0,0,0-11.4-5.58,51.36,51.36,0,0,0-14.27-1.89h-17.71v83.15h4.26V82.48Zm-13.45-3.93V28.2h13.45q14.92,0,23.37,6.56t8.45,18.7q0,12.13-8.45,18.61t-23.37,6.48ZM1192,64.94h1.81a19.14,19.14,0,0,0,10.57-2.79q4.35-2.79,4.35-9.35t-4.35-9.35a19.14,19.14,0,0,0-10.57-2.79H1192Z" transform="translate(-8 -7.76)"/><path class="cls-2" d="M1252.67,11.14h64.45v28.7H1287.6V52h29V79.2h-29V91.83h30.67v28.7h-65.6Zm53.46,96.27v-3.93h-32.8V67.56h31.17V63.62h-31.17V28.2h32.8V24.26h-37.06v83.15Z" transform="translate(-8 -7.76)"/><path class="cls-2" d="M1328.11,120.53V11.14h30.34a100,100,0,0,1,27.47,3.45,54.82,54.82,0,0,1,20.33,10.33,44.49,44.49,0,0,1,12.63,17.14,60.22,60.22,0,0,1,4.35,23.7,60.21,60.21,0,0,1-4.35,23.69,44.42,44.42,0,0,1-12.63,17.14A55.69,55.69,0,0,1,1385.92,117a97.64,97.64,0,0,1-27.47,3.53Zm16.4-13.12h13.94q23.94,0,36.16-10.9t12.22-30.75q0-19.85-12.22-30.67t-36.16-10.83h-13.94Zm4.26-3.93V28.2h9.68q20.82,0,32.39,9.43t11.56,28.13q0,18.69-11.56,28.2t-32.39,9.52ZM1363,89.37q12.3,0,19-5.82t6.72-17.79q0-12-6.72-17.72t-19-5.74Z" transform="translate(-8 -7.76)"/><path class="cls-2" d="M1429.3,86.58a53.9,53.9,0,0,0,7.54,1.81,59.55,59.55,0,0,0,7.46,1.31,71.79,71.79,0,0,0,8.45.49q7.55,0,7.54-5.57a6.25,6.25,0,0,0-2.29-4.35,69.41,69.41,0,0,0-5.83-4.92q-3.53-2.7-7.54-6a54.26,54.26,0,0,1-7.54-7.54,39.14,39.14,0,0,1-5.83-9.59A30.68,30.68,0,0,1,1429,40a31.48,31.48,0,0,1,2.79-13.61,27.19,27.19,0,0,1,7.7-9.84,34.63,34.63,0,0,1,11.57-6,47.66,47.66,0,0,1,14.18-2.05,76.68,76.68,0,0,1,7.87.41l7.06.74c2.4.33,4.75.65,7,1V41.32c-.88-.11-1.86-.22-3-.33-.88-.11-1.86-.22-3-.33s-2.24-.16-3.44-.16c-.66,0-1.48,0-2.46.08a15.36,15.36,0,0,0-2.79.41,5.63,5.63,0,0,0-2.29,1.15,2.82,2.82,0,0,0-1,2.3c0,.87.74,2,2.22,3.28s3.28,2.84,5.41,4.59,4.48,3.77,7,6.07a48.58,48.58,0,0,1,7,7.87,45.89,45.89,0,0,1,5.41,10,33.45,33.45,0,0,1,2.22,12.47,39.31,39.31,0,0,1-2.3,13.53,28.71,28.71,0,0,1-7.13,11,34.09,34.09,0,0,1-12.38,7.38,52.87,52.87,0,0,1-17.88,2.71,108.94,108.94,0,0,1-11.56-.57c-3.56-.39-6.7-.85-9.43-1.4a78.66,78.66,0,0,1-8.69-2Zm13.77,19.68c1.53.33,3.17.61,4.92.82,1.53.22,3.14.41,4.84.58s3.42.24,5.17.24a37.31,37.31,0,0,0,8.93-1.06,22.39,22.39,0,0,0,7.79-3.53,18,18,0,0,0,5.5-6.31,20,20,0,0,0,2-9.43,18.3,18.3,0,0,0-2.38-9,41.92,41.92,0,0,0-6.07-8.2A102.46,102.46,0,0,0,1466,62.8q-4.18-3.6-7.87-7.29a44.82,44.82,0,0,1-6.07-7.38,13.88,13.88,0,0,1-2.38-7.63q0-5.91,3.77-9.1t12.14-3.2c.87,0,1.78,0,2.71.08s1.83.14,2.7.25a21.1,21.1,0,0,0,2.63.16V24.43a19.71,19.71,0,0,1-2.46-.17c-.77-.1-1.62-.19-2.55-.24s-1.88-.08-2.87-.08q-8.85,0-14.59,4t-5.74,12.55a16.59,16.59,0,0,0,2.38,8.61,43.12,43.12,0,0,0,6.06,7.87q3.69,3.85,7.88,7.46t7.87,7.3a40.39,40.39,0,0,1,6.07,7.63,15.67,15.67,0,0,1,2.37,8.2q0,7.88-5.33,12t-14.67,4.1a57.71,57.71,0,0,1-10.17-.82c-1.64-.22-3.23-.49-4.76-.82Z" transform="translate(-8 -7.76)"/></svg>